<?xml version="1.0" encoding="utf-8"?>
<svg viewBox="50.539 23.252 441.5925 452.4022" xmlns="http://www.w3.org/2000/svg">
  <path d="M 404.865 227.614 L 414.624 217.619 L 385.348 187.635 L 331.718 132.708 L 302.443 102.724 L 292.684 112.718 L 273.167 132.708 L 101.138 308.898 C 92.157 318.097 85.593 329.507 81.966 341.978 L 51.395 448.471 C 49.236 455.901 51.222 463.95 56.663 469.433 C 62.103 474.917 69.876 476.952 77.13 474.829 L 181.021 443.518 C 193.197 439.803 204.338 433.081 213.319 423.882 L 385.348 247.692 L 404.865 227.614 Z M 204.572 379.845 L 193.704 390.349 C 190.25 393.091 173.507 401.416 169.362 402.743 L 101.829 423.086 L 121.692 354.007 C 122.901 349.673 127.708 339.675 130.385 336.226 L 142.604 325.989 L 142.878 369.883 C 142.878 377.667 146.087 381.847 153.687 381.847 L 204.572 379.845 Z M 363.758 39.836 L 351.322 52.661 L 331.805 72.651 L 321.96 82.646 L 351.236 112.63 L 404.865 167.557 L 434.141 197.541 L 443.9 187.546 L 463.417 167.557 L 475.939 154.732 C 497.529 132.619 497.529 96.797 475.939 74.685 L 442 39.836 C 420.41 17.724 385.434 17.724 363.844 39.836 L 363.758 39.836 Z" style="" fill="#797979"/>
</svg>